<?xml version="1.0" standalone="no"?>
<!DOCTYPE svg PUBLIC "-//W3C//DTD SVG 20010904//EN"
 "http://www.w3.org/TR/2001/REC-SVG-20010904/DTD/svg10.dtd">
<svg version="1.0" xmlns="http://www.w3.org/2000/svg"
 width="500.000000pt" height="500.000000pt" viewBox="0 0 500.000000 500.000000"
 preserveAspectRatio="xMidYMid meet">
<metadata>
Created by potrace 1.14, written by Peter Selinger 2001-2017
</metadata>
<g transform="translate(0.000000,500.000000) scale(0.100000,-0.100000)"
fill="#000000" stroke="none">
<path d="M0 2500 l0 -2500 2500 0 2500 0 0 2500 0 2500 -2500 0 -2500 0 0
-2500z m4890 0 l0 -2390 -2390 0 -2390 0 0 2390 0 2390 2390 0 2390 0 0 -2390z"/>
<path d="M3254 3528 c-82 -218 -722 -1664 -834 -1888 l-42 -84 -24 29 c-172
212 -673 880 -674 896 0 3 30 14 68 24 261 71 440 219 513 425 32 90 33 258 2
342 -59 158 -184 252 -393 295 -83 17 -206 19 -907 13 l-433 -3 0 -49 0 -48
78 0 c98 -1 149 -12 179 -42 21 -21 24 -37 33 -153 5 -72 9 -436 9 -810 0
-634 -7 -915 -24 -958 -14 -34 -65 -51 -172 -55 l-103 -4 0 -47 0 -47 460 1
460 0 0 46 0 46 -112 5 c-139 6 -172 19 -190 81 -10 33 -13 235 -13 932 0 490
3 902 7 916 7 23 18 30 90 50 98 27 291 37 383 20 85 -15 196 -73 241 -124
122 -140 134 -387 27 -560 -59 -94 -174 -171 -304 -202 -39 -9 -113 -15 -190
-15 l-127 0 -5 -26 c-4 -22 10 -44 87 -133 122 -142 176 -211 505 -656 l282
-380 369 0 370 0 0 47 c0 53 2 52 -125 64 -85 8 -131 25 -139 52 -11 33 19
128 110 349 47 114 88 214 91 221 4 10 101 12 456 10 l451 -3 93 -235 c115
-292 126 -325 119 -355 -7 -28 -54 -45 -126 -45 -25 0 -69 -3 -97 -6 l-53 -7
0 -46 0 -46 425 0 425 0 0 48 c0 31 -4 47 -12 47 -47 1 -140 21 -161 34 -13 9
-40 45 -58 79 -18 34 -223 503 -455 1042 l-421 980 -56 3 -55 3 -28 -73z m206
-828 c104 -249 188 -455 186 -457 -1 -2 -176 -2 -387 -1 l-385 3 173 410 c94
226 181 432 193 459 11 27 22 47 25 45 2 -3 90 -209 195 -459z"/>
</g>
</svg>
